<svg id="logo-svg" width="590.694" height="50.66" viewBox="0 0 590.694 75.66" xmlns="http://www.w3.org/2000/svg"><g id="svgGroup" stroke-linecap="round" fill-rule="evenodd" font-size="9pt" stroke="#000000" stroke-width="0.25mm" fill="#000000" style="stroke:#000000;stroke-width:0.25mm;fill:#000000"><path d="M 407.238 5.46 L 409.032 5.46 A 504.89 504.89 0 0 1 408.968 6.707 Q 408.939 7.258 408.906 7.863 A 907.576 907.576 0 0 1 408.837 9.126 Q 408.72 11.232 408.681 14.703 A 473.912 473.912 0 0 0 408.664 16.577 Q 408.645 19.173 408.642 22.692 A 1561.26 1561.26 0 0 0 408.642 23.868 L 406.848 23.868 Q 406.536 19.656 404.898 15.756 Q 403.26 11.856 400.413 9.282 A 9.897 9.897 0 0 0 394.07 6.724 A 12.814 12.814 0 0 0 393.432 6.708 A 10.654 10.654 0 0 0 390.723 7.036 A 8.054 8.054 0 0 0 387.504 8.697 A 6.462 6.462 0 0 0 385.329 12.523 A 9.649 9.649 0 0 0 385.164 14.352 Q 385.164 17.316 386.646 19.461 Q 387.798 21.128 389.869 22.819 A 28.509 28.509 0 0 0 391.131 23.79 A 275.268 275.268 0 0 0 392.732 24.945 Q 395.115 26.652 398.282 28.856 A 767.203 767.203 0 0 0 398.736 29.172 A 79.121 79.121 0 0 1 402.613 31.892 A 62.77 62.77 0 0 1 405.288 34.008 A 20.862 20.862 0 0 1 409.169 38.258 A 19.188 19.188 0 0 1 409.929 39.468 A 12.778 12.778 0 0 1 411.394 43.52 A 17.701 17.701 0 0 1 411.684 46.8 A 15.517 15.517 0 0 1 411.193 50.797 A 11.781 11.781 0 0 1 408.876 55.341 Q 406.068 58.734 401.466 60.411 A 27.967 27.967 0 0 1 394.121 61.98 A 33.558 33.558 0 0 1 391.404 62.088 Q 386.39 62.088 383.398 61.173 A 13.232 13.232 0 0 1 383.331 61.152 A 49.757 49.757 0 0 1 381.205 60.439 Q 379.538 59.836 378.222 59.202 A 12.974 12.974 0 0 0 377.413 58.724 Q 376.272 58.11 375.57 58.11 A 1.077 1.077 0 0 0 374.67 58.553 Q 374.542 58.721 374.445 58.953 A 2.362 2.362 0 0 0 374.439 58.968 A 5.595 5.595 0 0 0 374.241 59.553 Q 374.06 60.19 373.917 61.109 A 23.508 23.508 0 0 0 373.854 61.542 L 372.06 61.542 A 54.128 54.128 0 0 0 372.161 59.986 Q 372.231 58.612 372.255 56.979 Q 372.29 54.642 372.325 51.087 A 2246.228 2246.228 0 0 0 372.333 50.232 A 690.157 690.157 0 0 0 372.35 48.024 Q 372.372 44.499 372.372 39.702 L 374.166 39.702 A 43.001 43.001 0 0 0 375.13 46.663 A 37.369 37.369 0 0 0 375.921 49.608 A 19.532 19.532 0 0 0 377.685 53.654 A 15.346 15.346 0 0 0 380.367 57.057 A 10.135 10.135 0 0 0 385.436 59.626 A 14.657 14.657 0 0 0 388.362 59.904 A 14.257 14.257 0 0 0 390.801 59.705 A 10.487 10.487 0 0 0 393.276 58.968 Q 395.382 58.032 396.63 56.199 A 7.065 7.065 0 0 0 397.724 53.477 A 9.657 9.657 0 0 0 397.878 51.714 A 12.189 12.189 0 0 0 397.533 48.753 A 9.687 9.687 0 0 0 396.396 46.02 A 16.96 16.96 0 0 0 394.251 43.245 A 21.96 21.96 0 0 0 392.34 41.457 A 50.287 50.287 0 0 0 389.552 39.302 A 67.284 67.284 0 0 0 386.334 37.128 A 108.487 108.487 0 0 1 380.686 33.147 A 96.315 96.315 0 0 1 379.47 32.214 A 22.912 22.912 0 0 1 375.994 28.888 A 19.465 19.465 0 0 1 374.361 26.637 A 12.465 12.465 0 0 1 372.719 22.283 A 17.053 17.053 0 0 1 372.45 19.188 A 15.877 15.877 0 0 1 372.843 15.562 A 11.267 11.267 0 0 1 375.024 10.998 A 14.634 14.634 0 0 1 380.499 6.823 A 18.033 18.033 0 0 1 381.849 6.279 A 26.53 26.53 0 0 1 390.821 4.758 A 29.761 29.761 0 0 1 390.858 4.758 Q 395.694 4.758 398.346 5.733 A 35.755 35.755 0 0 1 400.517 6.609 Q 401.817 7.186 402.87 7.8 Q 403.806 8.346 404.391 8.619 A 3.067 3.067 0 0 0 404.957 8.822 A 2.367 2.367 0 0 0 405.522 8.892 A 1.077 1.077 0 0 0 406.422 8.449 Q 406.55 8.281 406.647 8.049 A 2.362 2.362 0 0 0 406.653 8.034 A 5.595 5.595 0 0 0 406.851 7.449 Q 407.032 6.812 407.175 5.893 A 23.508 23.508 0 0 0 407.238 5.46 Z M 70.122 0 L 70.122 26.052 Q 72.072 22.464 75.309 20.982 A 16.097 16.097 0 0 1 79.706 19.713 A 21.1 21.1 0 0 1 82.758 19.5 A 22.476 22.476 0 0 1 84.863 19.592 Q 86.868 19.782 88.257 20.358 A 10.32 10.32 0 0 1 89.723 21.1 Q 90.494 21.575 91.061 22.149 A 5.836 5.836 0 0 1 91.416 22.542 Q 92.647 24.003 93.195 26.299 A 13.058 13.058 0 0 1 93.21 26.364 A 16.851 16.851 0 0 1 93.498 27.986 Q 93.739 29.817 93.755 32.322 A 56.347 56.347 0 0 1 93.756 32.682 L 93.756 53.742 Q 93.756 57.018 94.809 58.188 Q 95.823 59.315 98.25 59.356 A 10.962 10.962 0 0 0 98.436 59.358 L 98.436 60.996 A 142.198 142.198 0 0 0 97.595 60.955 Q 96.184 60.889 93.873 60.801 Q 90.792 60.684 87.828 60.684 Q 84.708 60.684 81.744 60.801 A 892.348 892.348 0 0 0 80.35 60.857 Q 79.002 60.912 78.028 60.957 A 211.003 211.003 0 0 0 77.22 60.996 L 77.22 59.358 A 6.394 6.394 0 0 0 78.287 59.275 Q 79.632 59.047 80.262 58.188 A 3.149 3.149 0 0 0 80.677 57.363 Q 80.975 56.512 81.072 55.17 A 19.755 19.755 0 0 0 81.12 53.742 L 81.12 28.938 A 13.865 13.865 0 0 0 81.056 27.564 Q 80.987 26.872 80.843 26.276 A 7.428 7.428 0 0 0 80.73 25.857 A 4.483 4.483 0 0 0 80.329 24.914 A 3.255 3.255 0 0 0 79.443 23.907 Q 78.783 23.419 77.68 23.29 A 7.336 7.336 0 0 0 76.83 23.244 Q 75.036 23.244 73.515 24.141 A 6.571 6.571 0 0 0 71.309 26.296 A 7.966 7.966 0 0 0 71.058 26.715 A 7.359 7.359 0 0 0 70.196 29.388 A 9.287 9.287 0 0 0 70.122 30.576 L 70.122 53.742 Q 70.122 57.018 71.019 58.188 A 2.745 2.745 0 0 0 72.313 59.101 Q 73.035 59.358 74.022 59.358 L 74.022 60.996 A 144.089 144.089 0 0 0 73.232 60.955 Q 71.916 60.889 69.81 60.801 Q 67.002 60.684 64.038 60.684 Q 60.918 60.684 57.681 60.801 A 921.895 921.895 0 0 0 56.162 60.857 Q 54.699 60.912 53.662 60.957 A 200.036 200.036 0 0 0 52.806 60.996 L 52.806 59.358 A 8.917 8.917 0 0 0 54.066 59.275 Q 55.563 59.061 56.336 58.29 A 2.609 2.609 0 0 0 56.433 58.188 Q 57.288 57.238 57.449 54.9 A 16.92 16.92 0 0 0 57.486 53.742 L 57.486 9.36 Q 57.486 6.248 56.72 4.577 A 4.707 4.707 0 0 0 56.511 4.173 Q 55.662 2.713 53.483 2.524 A 7.845 7.845 0 0 0 52.806 2.496 L 52.806 0.858 Q 55.302 1.092 57.642 1.092 A 83.331 83.331 0 0 0 61.931 0.986 A 67.899 67.899 0 0 0 64.35 0.819 A 55.229 55.229 0 0 0 67.89 0.399 A 44.365 44.365 0 0 0 70.122 0 Z M 49.218 25.896 L 47.424 25.896 A 67.378 67.378 0 0 0 46.388 21.843 Q 45.785 19.771 45.108 18.044 A 27.649 27.649 0 0 0 43.68 14.937 A 20.965 20.965 0 0 0 42.109 12.452 Q 40.544 10.344 38.727 9.243 Q 35.958 7.566 32.76 7.566 L 31.824 7.566 L 31.824 52.104 A 24.661 24.661 0 0 0 31.876 53.773 Q 31.985 55.371 32.32 56.411 A 5.332 5.332 0 0 0 32.487 56.862 A 3.437 3.437 0 0 0 34.478 58.76 A 4.965 4.965 0 0 0 34.983 58.929 Q 36.609 59.379 39.554 59.43 A 44.764 44.764 0 0 0 40.326 59.436 L 40.326 60.996 Q 38.355 60.936 35.356 60.877 A 1024.161 1024.161 0 0 0 33.423 60.84 Q 29.094 60.762 24.414 60.762 Q 19.812 60.762 15.756 60.84 Q 11.7 60.918 9.204 60.996 L 9.204 59.436 A 39.167 39.167 0 0 0 11.144 59.391 Q 13.27 59.285 14.586 58.929 A 4.455 4.455 0 0 0 15.726 58.456 A 3.203 3.203 0 0 0 17.082 56.862 A 6.649 6.649 0 0 0 17.398 55.791 Q 17.637 54.673 17.691 53.065 A 28.993 28.993 0 0 0 17.706 52.104 L 17.706 7.566 L 16.848 7.566 Q 13.572 7.566 10.842 9.243 Q 8.688 10.566 6.874 13.322 A 22.971 22.971 0 0 0 5.928 14.898 Q 4.461 17.571 3.24 21.617 A 69.582 69.582 0 0 0 2.106 25.896 L 0.312 25.896 A 17.094 17.094 0 0 0 0.413 25.022 Q 0.483 24.248 0.507 23.322 A 109.272 109.272 0 0 0 0.536 21.782 A 136.053 136.053 0 0 0 0.546 20.124 A 103.748 103.748 0 0 0 0.539 18.954 Q 0.524 17.627 0.477 15.802 A 431.093 431.093 0 0 0 0.429 14.04 A 186.365 186.365 0 0 0 0.144 7.898 A 209.268 209.268 0 0 0 0 5.772 Q 3.666 5.85 8.073 5.928 Q 12.48 6.006 16.848 6.006 L 24.804 6.006 L 32.799 6.006 Q 37.206 6.006 41.574 5.928 Q 45.942 5.85 49.53 5.772 A 197.55 197.55 0 0 0 49.172 12.032 A 175.697 175.697 0 0 0 49.101 14.04 A 426.055 426.055 0 0 0 49.05 15.912 Q 48.984 18.545 48.984 20.124 Q 48.984 21.84 49.062 23.322 Q 49.14 24.804 49.218 25.896 Z M 136.266 36.894 L 111.228 36.894 L 111.15 35.412 L 125.658 35.412 Q 125.814 31.59 125.346 28.353 A 23.148 23.148 0 0 0 124.955 26.28 Q 124.516 24.446 123.825 23.166 Q 123.132 21.882 122.151 21.444 A 2.651 2.651 0 0 0 121.056 21.216 A 3.299 3.299 0 0 0 118.868 22.074 Q 118.347 22.52 117.874 23.196 A 10.261 10.261 0 0 0 117.078 24.57 A 13.078 13.078 0 0 0 116.26 26.809 Q 115.331 30.168 115.05 35.958 L 115.362 36.504 Q 115.206 37.362 115.206 38.259 L 115.206 40.17 A 32.741 32.741 0 0 0 115.361 43.467 Q 115.525 45.083 115.863 46.437 A 13.626 13.626 0 0 0 116.649 48.75 A 13.886 13.886 0 0 0 117.729 50.727 Q 118.416 51.762 119.225 52.49 A 7.022 7.022 0 0 0 120.276 53.274 A 9.172 9.172 0 0 0 122.889 54.373 A 8.119 8.119 0 0 0 124.8 54.6 Q 126.041 54.6 127.554 54.259 A 18.05 18.05 0 0 0 127.764 54.21 Q 129.232 53.86 130.825 52.822 A 14.857 14.857 0 0 0 131.196 52.572 A 10.903 10.903 0 0 0 132.79 51.201 Q 133.497 50.471 134.177 49.545 A 20.416 20.416 0 0 0 134.628 48.906 L 135.954 49.374 A 18.415 18.415 0 0 1 134.203 53.501 A 22.54 22.54 0 0 1 133.029 55.341 Q 130.962 58.266 127.764 60.177 A 13.139 13.139 0 0 1 123.499 61.773 A 18.069 18.069 0 0 1 120.042 62.088 Q 114.894 62.088 110.838 59.943 Q 106.782 57.798 104.403 53.157 Q 102.024 48.516 102.024 41.028 Q 102.024 35.232 103.599 31.059 A 17.881 17.881 0 0 1 104.598 28.86 A 17.613 17.613 0 0 1 108.2 24.18 A 15.856 15.856 0 0 1 111.618 21.801 A 20.691 20.691 0 0 1 119.397 19.595 A 25.168 25.168 0 0 1 121.602 19.5 Q 128.466 19.5 132.366 23.556 A 11.844 11.844 0 0 1 134.818 27.522 Q 136.175 31.006 136.26 36.195 A 42.779 42.779 0 0 1 136.266 36.894 Z M 349.83 20.592 L 349.83 22.23 A 5.506 5.506 0 0 0 348.377 22.952 Q 347.799 23.347 347.241 23.91 A 10.026 10.026 0 0 0 346.983 24.18 Q 345.832 25.43 344.764 28.234 A 32.475 32.475 0 0 0 344.37 29.328 L 333.996 59.28 L 330.564 66.534 L 312.702 26.598 Q 311.736 24.438 310.811 23.48 A 3.037 3.037 0 0 0 310.128 22.932 A 7.838 7.838 0 0 0 309.421 22.577 Q 308.625 22.23 308.022 22.23 L 308.022 20.592 Q 310.908 20.826 313.95 20.943 A 158.384 158.384 0 0 0 317.985 21.049 A 134.345 134.345 0 0 0 319.722 21.06 Q 322.671 21.06 325.045 20.945 A 74.403 74.403 0 0 0 325.806 20.904 Q 328.458 20.748 330.798 20.592 L 330.798 22.23 A 25.265 25.265 0 0 0 328.834 22.304 A 21.607 21.607 0 0 0 327.99 22.386 Q 326.664 22.542 326.157 23.283 Q 325.688 23.968 326.319 25.619 A 10.011 10.011 0 0 0 326.43 25.896 L 336.336 49.608 L 335.556 50.154 L 340.314 36.348 A 34.691 34.691 0 0 0 341.07 33.874 Q 341.747 31.294 341.747 29.335 A 10.269 10.269 0 0 0 341.718 28.548 A 10.414 10.414 0 0 0 341.422 26.714 Q 341.162 25.72 340.702 24.95 A 5.148 5.148 0 0 0 339.924 23.946 A 5.82 5.82 0 0 0 336.538 22.291 A 7.613 7.613 0 0 0 335.946 22.23 L 335.946 20.592 Q 337.116 20.67 338.559 20.748 Q 340.002 20.826 341.406 20.865 A 119.228 119.228 0 0 0 342.404 20.889 Q 343.19 20.904 343.824 20.904 Q 345.306 20.904 347.1 20.826 Q 348.894 20.748 349.83 20.592 Z M 158.886 60.996 L 158.886 59.436 A 24.351 24.351 0 0 0 160.15 59.324 Q 161.644 59.148 162.513 58.812 Q 163.722 58.344 164.151 56.94 A 7.486 7.486 0 0 0 164.368 55.983 Q 164.58 54.702 164.58 52.728 L 164.58 14.04 A 31.634 31.634 0 0 0 164.553 12.692 Q 164.493 11.296 164.3 10.372 A 6.132 6.132 0 0 0 164.151 9.789 A 3.298 3.298 0 0 0 163.685 8.837 A 2.706 2.706 0 0 0 162.513 7.917 Q 161.304 7.41 158.886 7.332 L 158.886 5.772 A 868.071 868.071 0 0 0 160.027 5.813 Q 161.294 5.859 162.934 5.914 A 2736.219 2736.219 0 0 0 164.502 5.967 A 126.421 126.421 0 0 0 168.714 6.037 A 126.387 126.387 0 0 0 171.522 6.006 Q 173.935 5.939 176.924 5.872 A 1450.837 1450.837 0 0 1 177.918 5.85 Q 181.463 5.773 183.866 5.772 A 154.709 154.709 0 0 1 183.924 5.772 A 57.681 57.681 0 0 1 192.541 6.371 Q 196.978 7.043 200.527 8.47 A 23.071 23.071 0 0 1 207.519 12.753 Q 215.033 19.581 215.198 32.19 A 43.502 43.502 0 0 1 215.202 32.76 A 32.277 32.277 0 0 1 214.286 40.61 A 25.916 25.916 0 0 1 211.419 47.619 A 24.961 24.961 0 0 1 201.829 56.773 A 30.532 30.532 0 0 1 200.46 57.486 A 33.099 33.099 0 0 1 192.021 60.225 Q 188.321 60.924 184.101 60.989 A 56.611 56.611 0 0 1 183.222 60.996 Q 182.106 60.996 180.365 60.934 A 161.483 161.483 0 0 1 179.946 60.918 A 196.939 196.939 0 0 0 176.794 60.823 A 225.524 225.524 0 0 0 175.695 60.801 A 270.714 270.714 0 0 0 173.583 60.772 Q 172.577 60.762 171.678 60.762 Q 168.012 60.762 164.502 60.801 A 159.275 159.275 0 0 0 162.835 60.828 Q 160.466 60.879 158.886 60.996 Z M 241.254 34.242 L 241.254 27.768 A 10.362 10.362 0 0 0 240.919 25.108 A 9.532 9.532 0 0 0 240.747 24.531 Q 240.24 23.01 238.953 22.035 A 4.404 4.404 0 0 0 237.532 21.335 Q 236.924 21.155 236.198 21.093 A 9.329 9.329 0 0 0 235.404 21.06 Q 234 21.06 232.674 21.45 Q 231.348 21.84 230.334 22.698 A 9.294 9.294 0 0 1 232.072 23.49 Q 233.144 24.128 233.846 25.014 A 5.72 5.72 0 0 1 234.039 25.272 Q 235.248 26.988 235.248 29.094 A 6.739 6.739 0 0 1 234.951 31.145 A 5.352 5.352 0 0 1 233.259 33.657 A 7.086 7.086 0 0 1 228.543 35.334 L 228.54 35.334 A 7.503 7.503 0 0 1 226.664 35.113 A 5.122 5.122 0 0 1 223.977 33.462 A 6.644 6.644 0 0 1 222.388 29.348 A 8.505 8.505 0 0 1 222.378 28.938 A 7.75 7.75 0 0 1 222.594 27.064 A 5.848 5.848 0 0 1 223.548 24.999 A 8.924 8.924 0 0 1 224.885 23.56 Q 225.555 22.974 226.398 22.431 A 16.42 16.42 0 0 1 226.98 22.074 A 14.806 14.806 0 0 1 229.604 20.878 Q 230.875 20.436 232.345 20.143 A 24.286 24.286 0 0 1 232.44 20.124 Q 235.638 19.5 239.226 19.5 A 31.79 31.79 0 0 1 243.165 19.734 A 25.54 25.54 0 0 1 245.973 20.241 Q 249.054 20.982 251.238 23.166 A 8.305 8.305 0 0 1 253.407 27.454 A 9.959 9.959 0 0 1 253.422 27.534 A 24.894 24.894 0 0 1 253.698 29.565 Q 253.89 31.538 253.89 34.086 L 253.89 55.146 A 17.066 17.066 0 0 0 253.911 56.033 Q 253.976 57.278 254.241 57.837 A 1.472 1.472 0 0 0 254.509 58.235 Q 254.816 58.551 255.29 58.576 A 1.573 1.573 0 0 0 255.372 58.578 Q 256.074 58.578 256.698 58.188 A 17.749 17.749 0 0 0 257.868 57.388 A 19.384 19.384 0 0 0 257.946 57.33 L 258.804 58.656 A 11.67 11.67 0 0 1 255.759 60.438 A 13.946 13.946 0 0 1 254.748 60.801 A 16.024 16.024 0 0 1 251.06 61.493 A 19.066 19.066 0 0 1 249.678 61.542 A 19.264 19.264 0 0 1 247.861 61.462 Q 246.04 61.289 244.843 60.742 A 5.725 5.725 0 0 1 244.803 60.723 A 6.432 6.432 0 0 1 243.565 59.977 A 4.571 4.571 0 0 1 242.307 58.5 Q 241.566 57.096 241.488 55.38 A 14.302 14.302 0 0 1 238.505 58.894 A 13.243 13.243 0 0 1 237.198 59.865 A 9.921 9.921 0 0 1 233.934 61.209 Q 232.461 61.542 230.724 61.542 A 15.552 15.552 0 0 1 228.209 61.35 Q 226.259 61.03 224.796 60.177 A 8.872 8.872 0 0 1 222.482 58.269 A 8.024 8.024 0 0 1 221.364 56.55 Q 220.272 54.288 220.272 51.714 A 11.585 11.585 0 0 1 220.495 49.377 Q 220.854 47.632 221.793 46.332 A 11.336 11.336 0 0 1 225.657 42.979 A 13.061 13.061 0 0 1 225.732 42.939 Q 228.15 41.652 230.802 40.794 A 404.019 404.019 0 0 0 234.648 39.529 A 353.742 353.742 0 0 0 235.872 39.117 A 18.221 18.221 0 0 0 237.618 38.43 Q 238.869 37.856 239.772 37.167 A 3.911 3.911 0 0 0 240.752 36.106 A 3.496 3.496 0 0 0 241.254 34.242 Z M 450.294 48.828 L 451.62 49.296 A 19.3 19.3 0 0 1 449.894 53.43 A 23.682 23.682 0 0 1 448.734 55.302 Q 446.706 58.266 443.508 60.177 A 13.08 13.08 0 0 1 439.341 61.748 Q 437.649 62.088 435.708 62.088 Q 430.56 62.088 426.387 59.982 A 14.702 14.702 0 0 1 420.98 55.248 A 19.043 19.043 0 0 1 419.718 53.196 A 19.089 19.089 0 0 1 418.056 48.734 Q 417.222 45.324 417.222 40.95 A 34.35 34.35 0 0 1 417.569 35.918 Q 417.962 33.271 418.798 31.076 A 17.688 17.688 0 0 1 419.796 28.899 A 17.464 17.464 0 0 1 423.878 23.829 A 16.374 16.374 0 0 1 426.855 21.84 A 20.809 20.809 0 0 1 435.089 19.563 A 25.059 25.059 0 0 1 436.878 19.5 A 27.704 27.704 0 0 1 439.887 19.656 A 20.195 20.195 0 0 1 442.728 20.163 A 20.665 20.665 0 0 1 444.527 20.71 Q 445.395 21.02 446.121 21.384 A 10.503 10.503 0 0 1 446.94 21.84 Q 448.968 23.088 450.216 25.038 Q 451.464 26.988 451.464 29.562 A 7.407 7.407 0 0 1 451.014 32.185 A 6.634 6.634 0 0 1 449.514 34.515 A 6.541 6.541 0 0 1 444.876 36.5 A 8.627 8.627 0 0 1 444.6 36.504 A 10.256 10.256 0 0 1 444.553 36.504 Q 443.471 36.499 442.554 36.266 A 5.741 5.741 0 0 1 439.803 34.71 Q 438.048 32.916 438.048 30.108 A 7.18 7.18 0 0 1 438.451 27.665 A 6.343 6.343 0 0 1 439.764 25.506 Q 441.48 23.634 443.82 23.01 A 4.217 4.217 0 0 0 442.955 22.351 A 5.551 5.551 0 0 0 442.221 21.996 Q 441.246 21.606 439.92 21.606 Q 437.268 21.606 435.474 23.127 A 9.834 9.834 0 0 0 433.588 25.301 A 13.343 13.343 0 0 0 432.549 27.261 A 22.228 22.228 0 0 0 431.379 30.771 A 27.583 27.583 0 0 0 430.911 33.111 Q 430.404 36.348 430.404 39.78 A 35.472 35.472 0 0 0 430.553 43.14 Q 430.874 46.507 431.89 48.715 A 10.495 10.495 0 0 0 431.925 48.789 A 13.589 13.589 0 0 0 433.063 50.784 Q 433.797 51.837 434.662 52.561 A 7.042 7.042 0 0 0 435.747 53.313 Q 438.048 54.6 440.466 54.6 Q 441.714 54.6 443.352 54.21 A 8.561 8.561 0 0 0 444.93 53.656 Q 445.849 53.235 446.823 52.572 A 10.33 10.33 0 0 0 448.444 51.185 Q 449.145 50.456 449.814 49.527 A 19.636 19.636 0 0 0 450.294 48.828 Z M 472.758 30.966 L 472.758 52.962 A 13.05 13.05 0 0 0 472.863 54.683 Q 473.117 56.584 473.985 57.598 A 3.225 3.225 0 0 0 474.435 58.032 A 5.076 5.076 0 0 0 475.897 58.814 Q 477.277 59.304 479.318 59.353 A 19.239 19.239 0 0 0 479.778 59.358 L 479.778 60.996 A 253.607 253.607 0 0 0 478.774 60.955 Q 477.107 60.889 474.474 60.801 A 215.299 215.299 0 0 0 468.152 60.686 A 236.836 236.836 0 0 0 467.22 60.684 Q 463.866 60.684 460.473 60.801 A 876.298 876.298 0 0 0 458.886 60.857 Q 456.724 60.936 455.502 60.993 A 124.329 124.329 0 0 0 455.442 60.996 L 455.442 59.358 A 8.917 8.917 0 0 0 456.702 59.275 Q 458.199 59.061 458.972 58.29 A 2.609 2.609 0 0 0 459.069 58.188 Q 459.924 57.238 460.085 54.9 A 16.92 16.92 0 0 0 460.122 53.742 L 460.122 29.094 Q 460.122 25.964 459.316 24.292 A 4.624 4.624 0 0 0 459.108 23.907 A 3.253 3.253 0 0 0 457.217 22.471 Q 456.639 22.29 455.93 22.245 A 7.684 7.684 0 0 0 455.442 22.23 L 455.442 20.592 Q 457.938 20.826 460.278 20.826 A 80.965 80.965 0 0 0 465.142 20.685 A 69.483 69.483 0 0 0 466.947 20.553 A 55.942 55.942 0 0 0 470.34 20.159 A 44.116 44.116 0 0 0 472.758 19.734 L 472.758 26.13 Q 473.694 24.102 475.215 22.62 Q 476.736 21.138 478.725 20.319 A 11.02 11.02 0 0 1 482.331 19.52 A 12.924 12.924 0 0 1 483.054 19.5 A 10.078 10.078 0 0 1 484.748 19.634 Q 485.67 19.791 486.413 20.134 A 5.065 5.065 0 0 1 487.266 20.631 Q 488.826 21.762 489.528 23.517 Q 490.23 25.272 490.23 26.988 A 9.089 9.089 0 0 1 489.972 29.211 A 6.512 6.512 0 0 1 488.397 32.136 A 6.101 6.101 0 0 1 484.367 34.052 A 8.371 8.371 0 0 1 483.6 34.086 A 10.808 10.808 0 0 1 481.795 33.945 Q 479.968 33.635 478.842 32.643 A 4.753 4.753 0 0 1 477.23 29.371 A 6.634 6.634 0 0 1 477.204 28.782 A 9.147 9.147 0 0 1 477.352 27.089 Q 477.599 25.779 478.257 24.804 Q 479.31 23.244 480.87 22.152 Q 479.7 21.996 478.608 22.464 Q 477.36 22.776 476.268 23.634 Q 475.176 24.492 474.396 25.662 Q 473.616 26.832 473.187 28.197 Q 472.758 29.562 472.758 30.966 Z M 581.802 7.878 L 581.802 20.592 L 590.226 20.592 L 590.226 22.152 L 581.802 22.152 L 581.802 54.054 A 8.545 8.545 0 0 0 581.852 55.01 Q 581.988 56.222 582.504 56.823 A 2.23 2.23 0 0 0 583.62 57.517 Q 583.979 57.619 584.408 57.638 A 4.558 4.558 0 0 0 584.61 57.642 A 3.989 3.989 0 0 0 585.881 57.423 Q 586.371 57.26 586.878 56.973 A 7.199 7.199 0 0 0 587.067 56.862 Q 588.075 56.251 588.963 54.97 A 11.506 11.506 0 0 0 589.446 54.21 L 590.694 54.99 A 13.823 13.823 0 0 1 588.279 58.631 A 12.535 12.535 0 0 1 586.599 60.138 Q 583.986 62.088 579.774 62.088 A 17.071 17.071 0 0 1 577.489 61.942 A 12.481 12.481 0 0 1 575.211 61.425 A 9.03 9.03 0 0 1 573.183 60.469 A 7.658 7.658 0 0 1 571.896 59.436 A 8.054 8.054 0 0 1 569.728 55.44 A 9.768 9.768 0 0 1 569.673 55.185 Q 569.332 53.482 569.221 51.092 A 53.629 53.629 0 0 1 569.166 48.594 L 569.166 22.152 L 562.926 22.152 L 562.926 20.592 L 569.166 20.592 L 569.166 10.842 A 33.534 33.534 0 0 0 573.105 10.62 A 26.826 26.826 0 0 0 575.913 10.14 Q 578.994 9.438 581.802 7.878 Z M 303.186 0 L 303.186 53.742 Q 303.186 57.018 304.239 58.188 Q 305.253 59.315 307.68 59.356 A 10.962 10.962 0 0 0 307.866 59.358 L 307.866 60.996 A 147.703 147.703 0 0 0 307.028 60.955 Q 305.624 60.889 303.342 60.801 Q 300.3 60.684 297.102 60.684 Q 293.982 60.684 290.745 60.801 A 921.895 921.895 0 0 0 289.226 60.857 Q 287.763 60.912 286.726 60.957 A 200.036 200.036 0 0 0 285.87 60.996 L 285.87 59.358 A 8.917 8.917 0 0 0 287.13 59.275 Q 288.627 59.061 289.4 58.29 A 2.609 2.609 0 0 0 289.497 58.188 Q 290.352 57.238 290.513 54.9 A 16.92 16.92 0 0 0 290.55 53.742 L 290.55 9.282 A 19.351 19.351 0 0 0 290.473 7.49 Q 290.305 5.692 289.772 4.551 A 4.76 4.76 0 0 0 289.575 4.173 Q 288.726 2.713 286.547 2.524 A 7.845 7.845 0 0 0 285.87 2.496 L 285.87 0.858 Q 288.366 1.092 290.706 1.092 A 83.331 83.331 0 0 0 294.995 0.986 A 67.899 67.899 0 0 0 297.414 0.819 A 55.229 55.229 0 0 0 300.954 0.399 A 44.365 44.365 0 0 0 303.186 0 Z M 534.612 19.812 L 534.612 67.236 Q 534.612 70.544 536.043 71.904 A 3.187 3.187 0 0 0 536.445 72.228 A 6.487 6.487 0 0 0 538.31 73.081 Q 539.165 73.328 540.188 73.42 A 14.314 14.314 0 0 0 541.476 73.476 L 541.476 75.114 A 540.827 540.827 0 0 0 540.321 75.073 Q 538.434 75.007 535.626 74.919 A 234.562 234.562 0 0 0 531.785 74.831 A 271.935 271.935 0 0 0 527.748 74.802 Q 524.784 74.802 521.859 74.919 A 756.312 756.312 0 0 0 520.487 74.975 Q 518.564 75.056 517.452 75.114 L 517.452 73.476 A 8.662 8.662 0 0 0 518.673 73.396 Q 520.101 73.192 520.845 72.466 A 2.508 2.508 0 0 0 520.962 72.345 Q 521.784 71.428 521.94 69.151 A 16.709 16.709 0 0 0 521.976 68.016 L 521.976 29.172 Q 521.976 26.042 521.17 24.37 A 4.624 4.624 0 0 0 520.962 23.985 A 3.253 3.253 0 0 0 519.071 22.549 Q 518.493 22.368 517.784 22.323 A 7.684 7.684 0 0 0 517.296 22.308 L 517.296 20.67 Q 519.792 20.904 522.132 20.904 A 83.331 83.331 0 0 0 526.421 20.798 A 67.899 67.899 0 0 0 528.84 20.631 A 55.229 55.229 0 0 0 532.38 20.211 A 44.365 44.365 0 0 0 534.612 19.812 Z M 533.052 58.656 L 533.832 57.642 Q 534.534 58.734 535.782 59.28 Q 537.03 59.826 538.434 59.826 A 7.423 7.423 0 0 0 540.815 59.461 A 6.125 6.125 0 0 0 543.543 57.603 A 9.856 9.856 0 0 0 544.91 55.48 Q 545.799 53.654 546.312 51.09 A 39.075 39.075 0 0 0 546.835 47.609 Q 547.044 45.659 547.123 43.424 A 79.401 79.401 0 0 0 547.17 40.638 A 95.706 95.706 0 0 0 547.098 36.782 Q 546.956 33.273 546.535 30.838 A 24.163 24.163 0 0 0 546.39 30.069 A 24.177 24.177 0 0 0 545.923 28.166 Q 545.382 26.321 544.658 25.226 A 5.226 5.226 0 0 0 544.284 24.726 Q 542.958 23.166 541.164 23.166 A 6.143 6.143 0 0 0 537.216 24.603 A 8.229 8.229 0 0 0 536.679 25.077 A 7.036 7.036 0 0 0 534.75 28.439 A 9.956 9.956 0 0 0 534.456 30.264 L 534.3 26.988 A 12.859 12.859 0 0 1 536.394 23.636 A 11.038 11.038 0 0 1 539.136 21.372 A 13.639 13.639 0 0 1 544.38 19.632 A 17.303 17.303 0 0 1 546.546 19.5 A 12.52 12.52 0 0 1 551.248 20.37 A 11.799 11.799 0 0 1 553.605 21.645 A 12.523 12.523 0 0 1 556.676 24.749 Q 557.652 26.133 558.418 27.884 A 21.8 21.8 0 0 1 558.519 28.119 A 21.065 21.065 0 0 1 559.756 32.25 Q 560.156 34.274 560.288 36.626 A 42.563 42.563 0 0 1 560.352 39 A 47.136 47.136 0 0 1 560.16 43.369 Q 559.943 45.701 559.479 47.709 A 24.857 24.857 0 0 1 558.987 49.53 A 23.496 23.496 0 0 1 557.526 53.168 A 17.102 17.102 0 0 1 555.165 56.706 Q 552.708 59.514 549.393 60.801 A 19.292 19.292 0 0 1 543.086 62.073 A 22.223 22.223 0 0 1 542.256 62.088 A 17.848 17.848 0 0 1 538.734 61.752 A 15.26 15.26 0 0 1 536.913 61.269 A 8.97 8.97 0 0 1 534.78 60.247 A 7.299 7.299 0 0 1 533.052 58.656 Z M 178.698 13.884 L 178.698 52.884 A 22.747 22.747 0 0 0 178.76 54.635 Q 178.963 57.251 179.829 58.266 A 2.876 2.876 0 0 0 180.836 58.993 Q 181.815 59.444 183.422 59.555 A 16.302 16.302 0 0 0 184.548 59.592 A 18.464 18.464 0 0 0 188.496 59.194 Q 191.123 58.619 193.098 57.214 A 11.113 11.113 0 0 0 193.986 56.511 Q 197.169 53.717 198.717 48.581 A 27.012 27.012 0 0 0 199.017 47.502 A 43.723 43.723 0 0 0 200.002 42.261 Q 200.538 38.12 200.538 33.072 A 77.058 77.058 0 0 0 200.326 27.181 Q 200.114 24.422 199.69 22.053 A 35.158 35.158 0 0 0 198.9 18.603 Q 197.554 13.89 194.916 11.128 A 12.33 12.33 0 0 0 193.713 10.023 A 12.497 12.497 0 0 0 188.667 7.628 Q 186.859 7.204 184.752 7.178 A 22.457 22.457 0 0 0 184.47 7.176 A 15.342 15.342 0 0 0 183.02 7.239 Q 180.643 7.466 179.79 8.502 A 3.358 3.358 0 0 0 179.262 9.464 Q 178.699 10.967 178.698 13.877 A 34.872 34.872 0 0 0 178.698 13.884 Z M 278.304 19.734 L 278.304 53.742 Q 278.304 57.018 279.357 58.188 Q 280.371 59.315 282.798 59.356 A 10.962 10.962 0 0 0 282.984 59.358 L 282.984 60.996 A 194.283 194.283 0 0 0 282.111 60.955 Q 280.664 60.889 278.382 60.801 Q 275.34 60.684 272.22 60.684 Q 269.1 60.684 265.863 60.801 A 921.895 921.895 0 0 0 264.344 60.857 Q 262.881 60.912 261.844 60.957 A 200.036 200.036 0 0 0 260.988 60.996 L 260.988 59.358 A 8.917 8.917 0 0 0 262.248 59.275 Q 263.745 59.061 264.518 58.29 A 2.609 2.609 0 0 0 264.615 58.188 Q 265.47 57.238 265.631 54.9 A 16.92 16.92 0 0 0 265.668 53.742 L 265.668 29.094 Q 265.668 25.964 264.862 24.292 A 4.624 4.624 0 0 0 264.654 23.907 A 3.253 3.253 0 0 0 262.763 22.471 Q 262.185 22.29 261.476 22.245 A 7.684 7.684 0 0 0 260.988 22.23 L 260.988 20.592 Q 263.484 20.826 265.824 20.826 A 80.965 80.965 0 0 0 270.688 20.685 A 69.483 69.483 0 0 0 272.493 20.553 A 55.942 55.942 0 0 0 275.886 20.159 A 44.116 44.116 0 0 0 278.304 19.734 Z M 509.73 19.734 L 509.73 53.742 Q 509.73 57.018 510.783 58.188 Q 511.797 59.315 514.224 59.356 A 10.962 10.962 0 0 0 514.41 59.358 L 514.41 60.996 A 194.283 194.283 0 0 0 513.537 60.955 Q 512.09 60.889 509.808 60.801 Q 506.766 60.684 503.646 60.684 Q 500.526 60.684 497.289 60.801 A 921.895 921.895 0 0 0 495.77 60.857 Q 494.307 60.912 493.27 60.957 A 200.036 200.036 0 0 0 492.414 60.996 L 492.414 59.358 A 8.917 8.917 0 0 0 493.674 59.275 Q 495.171 59.061 495.944 58.29 A 2.609 2.609 0 0 0 496.041 58.188 Q 496.896 57.238 497.057 54.9 A 16.92 16.92 0 0 0 497.094 53.742 L 497.094 29.094 Q 497.094 25.964 496.288 24.292 A 4.624 4.624 0 0 0 496.08 23.907 A 3.253 3.253 0 0 0 494.189 22.471 Q 493.611 22.29 492.902 22.245 A 7.684 7.684 0 0 0 492.414 22.23 L 492.414 20.592 Q 494.91 20.826 497.25 20.826 A 80.965 80.965 0 0 0 502.114 20.685 A 69.483 69.483 0 0 0 503.919 20.553 A 55.942 55.942 0 0 0 507.312 20.159 A 44.116 44.116 0 0 0 509.73 19.734 Z M 333.996 59.28 L 331.968 59.748 L 329.238 68.016 A 15.961 15.961 0 0 1 328.8 69.159 Q 327.794 71.5 326.274 72.735 Q 324.402 74.256 321.984 74.256 A 9.322 9.322 0 0 1 321.838 74.255 Q 321.587 74.251 321.245 74.234 A 32.821 32.821 0 0 1 320.931 74.217 A 16.877 16.877 0 0 1 320.297 74.168 A 12.775 12.775 0 0 1 319.722 74.1 Q 320.782 73.747 321.586 73.233 A 5.486 5.486 0 0 0 323.154 71.76 A 6.838 6.838 0 0 0 323.694 70.852 A 5.148 5.148 0 0 0 324.246 68.562 A 6.628 6.628 0 0 0 324.124 67.256 Q 323.787 65.579 322.518 64.605 A 4.561 4.561 0 0 0 322.491 64.584 A 5.687 5.687 0 0 0 321.802 64.138 Q 320.202 63.258 317.85 63.258 A 12.508 12.508 0 0 0 317.119 63.279 Q 316.049 63.342 315.143 63.592 A 6.404 6.404 0 0 0 312.78 64.779 A 4.866 4.866 0 0 0 311.217 66.956 A 5.706 5.706 0 0 0 310.908 68.874 A 7.068 7.068 0 0 0 311.006 70.076 A 4.937 4.937 0 0 0 312.429 72.852 A 8.359 8.359 0 0 0 313.668 73.848 A 9.417 9.417 0 0 0 316.173 74.997 Q 318.379 75.655 320.392 75.66 A 12.441 12.441 0 0 0 320.424 75.66 Q 322.033 75.66 323.291 75.462 A 10.354 10.354 0 0 0 324.675 75.153 Q 326.352 74.646 327.444 73.788 A 6.985 6.985 0 0 0 328.423 72.846 A 8.874 8.874 0 0 0 329.355 71.526 Q 329.816 70.736 330.239 69.774 A 24.993 24.993 0 0 0 330.876 68.172 L 333.996 59.28 Z M 273.674 0.41 A 13.263 13.263 0 0 0 271.44 0.234 A 14.772 14.772 0 0 0 270.3 0.277 Q 269.092 0.37 268.085 0.669 A 6.987 6.987 0 0 0 265.707 1.872 A 5.207 5.207 0 0 0 263.884 4.663 A 7.49 7.49 0 0 0 263.64 6.63 A 8.012 8.012 0 0 0 263.755 8.022 A 5.31 5.31 0 0 0 265.707 11.388 A 6.506 6.506 0 0 0 267.007 12.185 Q 267.986 12.641 269.206 12.85 A 13.263 13.263 0 0 0 271.44 13.026 A 14.772 14.772 0 0 0 272.58 12.983 Q 273.788 12.89 274.795 12.591 A 6.987 6.987 0 0 0 277.173 11.388 A 5.207 5.207 0 0 0 278.996 8.597 A 7.49 7.49 0 0 0 279.24 6.63 A 8.012 8.012 0 0 0 279.125 5.238 A 5.31 5.31 0 0 0 277.173 1.872 A 6.506 6.506 0 0 0 275.873 1.075 Q 274.894 0.619 273.674 0.41 Z M 505.1 0.41 A 13.263 13.263 0 0 0 502.866 0.234 A 14.772 14.772 0 0 0 501.726 0.277 Q 500.518 0.37 499.511 0.669 A 6.987 6.987 0 0 0 497.133 1.872 A 5.207 5.207 0 0 0 495.31 4.663 A 7.49 7.49 0 0 0 495.066 6.63 A 8.012 8.012 0 0 0 495.181 8.022 A 5.31 5.31 0 0 0 497.133 11.388 A 6.506 6.506 0 0 0 498.433 12.185 Q 499.412 12.641 500.632 12.85 A 13.263 13.263 0 0 0 502.866 13.026 A 14.772 14.772 0 0 0 504.006 12.983 Q 505.214 12.89 506.221 12.591 A 6.987 6.987 0 0 0 508.599 11.388 A 5.207 5.207 0 0 0 510.422 8.597 A 7.49 7.49 0 0 0 510.666 6.63 A 8.012 8.012 0 0 0 510.551 5.238 A 5.31 5.31 0 0 0 508.599 1.872 A 6.506 6.506 0 0 0 507.299 1.075 Q 506.32 0.619 505.1 0.41 Z M 241.254 53.664 L 241.254 37.44 A 8.17 8.17 0 0 1 240.25 38.823 A 10.056 10.056 0 0 1 239.577 39.507 A 56.35 56.35 0 0 1 237.5 41.335 A 61.603 61.603 0 0 1 237.354 41.457 Q 236.184 42.432 235.131 43.602 A 9.276 9.276 0 0 0 233.724 45.692 A 10.919 10.919 0 0 0 233.415 46.371 Q 232.752 47.97 232.752 50.232 Q 232.752 53.069 233.837 54.413 A 3.259 3.259 0 0 0 234 54.6 A 4.155 4.155 0 0 0 236.987 55.922 A 5.571 5.571 0 0 0 237.198 55.926 A 5.251 5.251 0 0 0 238.447 55.783 A 4.328 4.328 0 0 0 239.421 55.419 A 4.021 4.021 0 0 0 240.252 54.834 Q 240.771 54.366 241.254 53.664 Z" vector-effect="non-scaling-stroke"/></g></svg>