<?xml version="1.0" encoding="UTF-8" standalone="no"?><!DOCTYPE svg PUBLIC "-//W3C//DTD SVG 1.1//EN" "http://www.w3.org/Graphics/SVG/1.1/DTD/svg11.dtd"><svg width="100%" height="100%" viewBox="0 0 1250 194" version="1.1" xmlns="http://www.w3.org/2000/svg" xmlns:xlink="http://www.w3.org/1999/xlink" xml:space="preserve" xmlns:serif="http://www.serif.com/" style="fill-rule:evenodd;clip-rule:evenodd;stroke-linejoin:round;stroke-miterlimit:2;"><rect id="FilmFindr_Logo-c4f5fc" x="-0" y="0" width="1250" height="191.833" style="fill:none;"/><clipPath id="_clip1"><rect x="-0" y="0" width="1250" height="191.833"/></clipPath><g clip-path="url(#_clip1)"><g><path d="M27.075,32.432l-0,131.608l-23.745,9.121l-1.737,15.347l97.729,0l2.171,-16.36l-33.3,-8.832l0,-48.068l31.708,-0l4.633,26.061l19.546,-4.054l5.791,-64.574l-21.283,4.344l-6.66,19.111l-33.735,0l0,-68.627l57.913,-0l6.805,30.984l18.388,2.895l7.239,-52.991l-156.366,0l-2.172,15.927l27.075,8.108Z" style="fill:#c4f5fc;fill-rule:nonzero;"/><path d="M200.13,40.25c5.502,-0 10.208,-0.917 14.117,-2.751c3.909,-1.834 6.877,-4.295 8.904,-7.384c2.027,-3.089 3.04,-6.467 3.04,-10.135c0,-3.571 -1.061,-6.829 -3.185,-9.773c-2.123,-2.944 -5.164,-5.284 -9.121,-7.022c-3.958,-1.737 -8.543,-2.606 -13.755,-2.606c-5.115,0 -9.58,0.845 -13.392,2.534c-3.813,1.689 -6.757,3.981 -8.832,6.877c-2.075,2.896 -3.113,6.129 -3.113,9.701c0,5.887 2.148,10.786 6.443,14.695c4.295,3.909 10.593,5.864 18.894,5.864Zm41.119,148.258l1.592,-18.387l-23.31,-6.66l0,-100.335l-5.791,-5.792l-47.489,3.475l-3.185,18.098l21.572,11.872l0,72.682l-22.151,6.515l-1.448,18.532l80.21,0Z" style="fill:#c4f5fc;fill-rule:nonzero;"/><path d="M331.31,188.508l1.882,-18.387l-22.876,-6.66l0,-157.67l-5.936,-5.791l-49.081,3.475l-3.33,17.953l23.455,11.293l-0,130.74l-22.008,6.515l-1.882,18.532l79.776,0Z" style="fill:#c4f5fc;fill-rule:nonzero;"/><path d="M419.344,170.845l-19.401,-7.24l0,-63.704c3.282,-3.282 6.95,-5.768 11.004,-7.457c4.054,-1.689 8.301,-2.533 12.741,-2.533c5.888,-0 10.545,2.147 13.971,6.442c3.427,4.296 5.14,10.546 5.14,18.75l0,48.502l-9.411,8.108l-0.724,16.795l62.257,0l2.462,-17.663l-20.125,-7.24l-0,-63.125c3.571,-3.378 7.191,-5.985 10.858,-7.819c3.668,-1.833 7.77,-2.75 12.307,-2.75c6.177,-0 10.907,2.171 14.189,6.515c3.282,4.343 4.922,10.569 4.922,18.677l0,48.502l-9.121,8.108l-0.434,16.795l62.257,0l2.606,-17.663l-20.704,-7.24l-0,-65.587c-0,-13.706 -2.968,-23.961 -8.904,-30.766c-5.937,-6.805 -14.599,-10.207 -25.989,-10.207c-14.672,-0 -28.957,7.915 -42.856,23.744l-2.027,-0.289c-2.22,-8.398 -6.153,-14.503 -11.8,-18.315c-5.646,-3.813 -12.427,-5.719 -20.342,-5.719c-15.057,-0 -29.246,7.528 -42.566,22.586l-1.738,-0.29l2.896,-16.505l-4.054,-4.344l-51.253,5.068l-2.607,17.519l21.863,9.555l-0,73.55l-21.139,8.108l-1.882,16.795l74.709,0l2.895,-17.663Z" style="fill:#c4f5fc;fill-rule:nonzero;"/><path d="M607.658,32.432l-0,131.608l-23.745,9.121l-1.737,15.347l97.729,0l2.172,-16.36l-33.301,-8.832l0,-48.068l31.708,-0l4.633,26.061l19.546,-4.054l5.791,-64.574l-21.283,4.344l-6.66,19.111l-33.735,0l0,-68.627l57.914,-0l6.805,30.984l18.387,2.895l7.239,-52.991l-156.366,0l-2.172,15.927l27.075,8.108Z" style="fill:#c4f5fc;fill-rule:nonzero;"/><path d="M780.714,40.25c5.501,-0 10.207,-0.917 14.116,-2.751c3.909,-1.834 6.877,-4.295 8.904,-7.384c2.027,-3.089 3.041,-6.467 3.041,-10.135c-0,-3.571 -1.062,-6.829 -3.186,-9.773c-2.123,-2.944 -5.164,-5.284 -9.121,-7.022c-3.957,-1.737 -8.542,-2.606 -13.754,-2.606c-5.116,0 -9.58,0.845 -13.393,2.534c-3.813,1.689 -6.756,3.981 -8.832,6.877c-2.075,2.896 -3.113,6.129 -3.113,9.701c0,5.887 2.148,10.786 6.443,14.695c4.296,3.909 10.594,5.864 18.895,5.864Zm41.118,148.258l1.593,-18.387l-23.31,-6.66l-0,-100.335l-5.792,-5.792l-47.489,3.475l-3.185,18.098l21.573,11.872l-0,72.682l-22.152,6.515l-1.448,18.532l80.21,0Z" style="fill:#c4f5fc;fill-rule:nonzero;"/><path d="M907.784,170.845l-19.691,-7.24l0,-63.994c6.564,-6.563 14.382,-9.845 23.455,-9.845c6.081,-0 10.859,2.099 14.334,6.298c3.475,4.199 5.212,10.738 5.212,19.618l-0,47.923l-9.99,8.253l-0.724,16.65l64.139,0l2.317,-17.663l-21.139,-7.24l0,-66.021c0,-13.706 -3.089,-24.034 -9.266,-30.984c-6.177,-6.949 -14.864,-10.424 -26.061,-10.424c-8.011,0 -15.492,2.027 -22.441,6.081c-6.95,4.054 -13.658,9.652 -20.125,16.795l-1.883,-0.435l2.896,-16.65l-3.909,-4.198l-50.819,4.922l-2.751,17.664l21.428,9.7l-0,73.55l-21.138,8.253l-2.027,16.65l74.998,0l3.185,-17.663Z" style="fill:#c4f5fc;fill-rule:nonzero;"/><path d="M1036.06,191.404c9.073,-0 16.626,-1.931 22.658,-5.791c6.033,-3.861 11.414,-9.074 16.144,-15.637l1.592,0.289l0.435,1.448c1.254,6.274 3.981,11.197 8.18,14.768c4.199,3.572 9.918,5.357 17.157,5.357c5.309,0 9.869,-0.434 13.682,-1.303c3.812,-0.869 8.47,-2.316 13.971,-4.343l2.607,-18.243l-5.213,-1.448c-4.922,-1.448 -8.566,-2.775 -10.931,-3.981c-2.365,-1.207 -4.126,-3.065 -5.284,-5.575c-1.159,-2.509 -1.738,-6.225 -1.738,-11.148l0,-140.006l-5.791,-5.791l-48.358,3.764l-2.896,17.23l23.6,11.293l0,15.781l1.593,14.479l-0.869,-0c-2.123,-1.448 -5.236,-2.679 -9.338,-3.692c-4.103,-1.014 -7.891,-1.521 -11.366,-1.521c-12.741,0 -24.203,3.499 -34.386,10.497c-10.183,6.998 -18.146,16.312 -23.889,27.943c-5.743,11.631 -8.615,24.059 -8.615,37.282c0,11.486 1.93,21.645 5.791,30.477c3.861,8.832 9.363,15.685 16.506,20.559c7.142,4.875 15.395,7.312 24.758,7.312Zm14.188,-111.628c3.958,-0 8.229,1.399 12.814,4.198c4.585,2.8 8.711,6.854 12.379,12.162l-0,57.045c-3.185,2.703 -6.853,4.947 -11.004,6.732c-4.15,1.786 -8.204,2.679 -12.162,2.679c-5.308,-0 -9.917,-1.713 -13.826,-5.14c-3.91,-3.426 -6.926,-8.228 -9.049,-14.406c-2.124,-6.177 -3.186,-13.416 -3.186,-21.717c0,-11.68 2.027,-21.525 6.081,-29.536c4.054,-8.012 10.039,-12.017 17.953,-12.017Z" style="fill:#c4f5fc;fill-rule:nonzero;"/><path d="M1230.6,168.528l-34.169,-6.95l0,-42.855c1.641,-7.336 4.416,-13.321 8.325,-17.954c3.909,-4.633 8.518,-6.949 13.827,-6.949c5.502,-0 11.583,2.123 18.243,6.37c4.15,-3.475 7.384,-7.215 9.7,-11.22c2.317,-4.006 3.475,-8.567 3.475,-13.683c-0,-5.598 -1.858,-10.279 -5.574,-14.044c-3.716,-3.764 -8.711,-5.646 -14.985,-5.646c-7.239,-0 -13.972,2.823 -20.198,8.47c-6.225,5.646 -11.124,14.213 -14.695,25.699l-2.751,-0.724l2.751,-26.785l-4.488,-4.633l-47.2,4.778l-2.896,17.663l22.008,9.122l-0,74.418l-21.718,7.819l-2.316,16.939l90.924,0l1.737,-19.835Z" style="fill:#c4f5fc;fill-rule:nonzero;"/></g></g></svg>